<svg height="1080" viewBox="0 0 1080 1080" width="1080" xmlns="http://www.w3.org/2000/svg" xmlns:xlink="http://www.w3.org/1999/xlink"><defs><path id="a" d="m974.130183 0c261.649717 414.327273-38.816329 584.626069-81.074561 1080h-11.055622c21.755012-490.43089 353.7799-665.672727 58.963317-1080zm-170.075078 0c262.895625 414.327273 66.649595 589.090909-62.946839 1080h-11.108266c103.677148-496.8 336.95073-665.672727 40.730308-1080zm-132.708983 0c225.42612 404.509091 125.647346 591.054545-33.259591 1080h-11.086531c147.820407-496.8 269.772242-661.745455 11.086531-1080zm-527.193102 0c202.601787 404.509091 224.7038 598.909091 3.683669 1080h-11.051007c209.969125-488.945455 209.969125-659.781818-25.785682-1080zm-111.0000003 0c202.6017873 404.509091 224.7038003 598.909091 3.6836688 1080h-11.0510065c209.969125-488.945455 209.969125-659.781818-25.785682-1080zm372.4003603 436c14.715856 257.207317 0 304.329268-154.516488 644h-11.036892c62.542388-225.792683 165.55338-247.390244 147.15856-642.036585 0 0 .060065-.006412.173329-.018501l.341726-.036475c2.648854-.282732 14.715856-1.570732 17.36471-1.853463l.341725-.036475c.056633-.006045.099965-.01067.129139-.013784zm151.44662 44c0 259.239344-22.117647 259.239344-176.941176 599h-11.058824c62.666667-225.852459 165.882353-208.177049 169.568627-597.036066l.044279-.004718c.029232-.003114.072651-.007741.129395-.013787l.209355-.022308c2.641221-.281432 18.048344-1.923121 18.048344-1.923121zm-180.131162-184.802007c-47.97952-98.156705 273.114192-155.087593 328.475176 88.341035 36.907323 162.285752-31.986346 367.106076-206.681009 614.460972l-18.453662-5.889402c177.155151-242.119872 246.048821-444.977062 206.68101-608.57157-59.051717-245.391762-298.949318-159.013862-280.495656-88.341035 18.453661 70.672828 140.247828 149.198192 180.845883 125.640582 40.598056-23.557609 0-70.672827-14.762929-90.304168s-51.670252-53.004621-84.886843-53.004621c-22.144394 0-24.604882 17.668207-7.381465 53.004621-9.841953 5.235024-14.762929 5.235024-14.762929 0 0-7.852536-22.144394-58.894023 14.762929-62.820291s51.670253 7.852536 103.340505 58.894023c51.670252 51.041486 47.97952 88.341034 3.690732 102.082973s-162.392222-35.336414-210.371742-133.493119zm628.604162 421.452007-.10332.350237c-4.49036 16.376763 19.84699 51.725812-18.058524 102.856975-34.424396 46.435445 11.588802-84.642412 18.024364-102.818695zm-542.973-46.520968c-22 44.661811-22 26.653016 0-54.026384 22-8.644221 22 9.364574 0 54.026384zm-283.5-468.129032c77 228.041868 96.25 378.375201 57.75 451 22-52.289855 2.75-202.623188-57.75-451zm673.1875 95c5.625 94.611639 2.8125 185.584368-8.4375 272.918188-11.25 87.333821-8.4375-3.638909 8.4375-272.918188zm-743.1605 139.297.030156.479203c1.851282 22.301688 47.895969 65.783291 24.161594 138.68144-21.554687 66.203422-23.925703-113.675169-24.186515-138.62607zm521.825161 90.445392c-9.719588 53.403835-14.56154 32.441851-14.525856-62.885952 19.403492-11.479868 24.245444 9.482116 14.525856 62.885952zm-138.852161-73.742392v24l-33-12zm492.021-259.166.025094.390522c1.492968 17.869942 38.625786 52.71097 19.485156 111.122949-17.382812 53.047613-19.294922-91.085873-19.505254-111.078583zm-441.609191-117.834c88.941704 29.488636 174.177503 135.647727 170.471599 173h-11.117713c3.705904-37.352273-85.2358-143.511364-166.765695-167.1022727 0 0 7.411809-5.8977273 7.411809-5.8977273zm-269.042244 0c29.391305 53.4 73.478261 69.222222 150.630435 79.111111 0 0-7.347826 9.888889-7.347826 9.888889-84.5 0-135.934783-43.511111-161.652174-87.0222222l.04413-.0047513c.043701-.0047052.119215-.0128354.223648-.0240793l.24657-.0265472c2.881397-.3102286 16.922493-1.8219773 17.811087-1.9176487zm109.984899 10c99.285261 25.628571 191.216058 27.6 187.538826 65.057143 0 0-.714876.153303-1.862704.399451l-.517612.111c-4.972689 1.066379-16.005844 3.432406-16.005844 3.432406 3.677232-37.457143-95.608029-39.428571-176.50713-63.0857143 0 0 7.354464-5.9142857 7.354464-5.9142857zm214.991774-15.2528142 17.34776.806772 18.468365 11.6995879-17.34776-.806772z"/><filter id="b" height="100.2%" width="100.2%" x="-.1%" y="-.1%"><feOffset dx="-1" dy="-1" in="SourceAlpha" result="shadowOffsetInner1"/><feComposite in="shadowOffsetInner1" in2="SourceAlpha" k2="-1" k3="1" operator="arithmetic" result="shadowInnerInner1"/><feColorMatrix in="shadowInnerInner1" result="shadowMatrixInner1" type="matrix" values="0 0 0 0 1   0 0 0 0 1   0 0 0 0 1  0 0 0 0.2 0"/><feGaussianBlur in="SourceAlpha" result="shadowBlurInner2" stdDeviation=".5"/><feOffset dx="1" dy="1" in="shadowBlurInner2" result="shadowOffsetInner2"/><feComposite in="shadowOffsetInner2" in2="SourceAlpha" k2="-1" k3="1" operator="arithmetic" result="shadowInnerInner2"/><feColorMatrix in="shadowInnerInner2" result="shadowMatrixInner2" type="matrix" values="0 0 0 0 0   0 0 0 0 0   0 0 0 0 0  0 0 0 0.15 0"/><feMerge><feMergeNode in="shadowMatrixInner1"/><feMergeNode in="shadowMatrixInner2"/></feMerge></filter></defs><g fill="#000" fill-rule="evenodd"><use fill-opacity=".1" fill-rule="evenodd" xlink:href="#a"/><use filter="url(#b)" xlink:href="#a"/></g></svg>